<svg class="css-1j8o68f"><defs id="SvgjsDefs1013"></defs><g id="SvgjsG1014" featurekey="UqkkrJ-0" transform="matrix(2.3185367584228516,0,0,2.3185367584228516,-0.24111918155461434,-2.1863642315420977)" fill="#eb6532">    <title xmlns="http://www.w3.org/2000/svg">Shape 20</title>    <g xmlns="http://www.w3.org/2000/svg" id="Page-1" stroke="none" stroke-width="1" fill="none" fill-rule="evenodd">        <g id="Artboard" transform="translate(-80.000000, -1033.000000)" fill="#eb6532" fill-rule="nonzero">            <g id="Shape-20" transform="translate(80.104000, 1033.943000)">                <path d="M24.459,45.231 L24.459,49.424 L49.657,49.424 L49.657,0 L0,0 L0,49.424 L16.678,49.424 L16.678,36.483 L24.464,36.483 C28.947,36.483 32.615,34.262 34.884,30.469 C38.59,24.27 36.454,17.131 32.033,11.887 C34.335,16.789 34.429,23.032 31.235,27.412 C28.721,30.857 24.539,31.889 20.455,31.889 L12.03,31.889 L12.03,45.231 L4.193,45.231 L4.193,4.194 L45.468,4.194 L45.468,45.231 L24.459,45.231 L24.459,45.231 Z M26.11,17.807 C25.774,14.26 23.355,12.207 19.643,12.207 L12.03,12.207 L12.03,24.211 L16.677,24.211 L16.677,17.391 L23.668,17.391 C24.554,17.391 25.334,17.495 26.11,17.807 L26.11,17.807 Z" id="Shape"></path></g></g></g></g></svg>