<svg width="396" height="124.6523427507723" viewBox="0 0 371.40350877192986 116.90989261181332" class="css-1j8o68f"><defs id="SvgjsDefs1013"></defs><g id="SvgjsG1014" featurekey="UqkkrJ-0" transform="matrix(2.3185367584228516,0,0,2.3185367584228516,-0.24111918155461434,-2.1863642315420977)" fill="#eb6532">    <title xmlns="http://www.w3.org/2000/svg">Shape 20</title>    <g xmlns="http://www.w3.org/2000/svg" id="Page-1" stroke="none" stroke-width="1" fill="none" fill-rule="evenodd">        <g id="Artboard" transform="translate(-80.000000, -1033.000000)" fill="#eb6532" fill-rule="nonzero">            <g id="Shape-20" transform="translate(80.104000, 1033.943000)">                <path d="M24.459,45.231 L24.459,49.424 L49.657,49.424 L49.657,0 L0,0 L0,49.424 L16.678,49.424 L16.678,36.483 L24.464,36.483 C28.947,36.483 32.615,34.262 34.884,30.469 C38.59,24.27 36.454,17.131 32.033,11.887 C34.335,16.789 34.429,23.032 31.235,27.412 C28.721,30.857 24.539,31.889 20.455,31.889 L12.03,31.889 L12.03,45.231 L4.193,45.231 L4.193,4.194 L45.468,4.194 L45.468,45.231 L24.459,45.231 L24.459,45.231 Z M26.11,17.807 C25.774,14.26 23.355,12.207 19.643,12.207 L12.03,12.207 L12.03,24.211 L16.677,24.211 L16.677,17.391 L23.668,17.391 C24.554,17.391 25.334,17.495 26.11,17.807 L26.11,17.807 Z" id="Shape"></path>            </g>        </g>    </g></g><g id="SvgjsG1015" featurekey="0kuQ8p-0" transform="matrix(2.100414991378784,0,0,2.100414991378784,135,19.43952024333022)" fill="#000000"><path d="M0 5.98 l11.42 0 c2.14 0 3.88 1.74 3.88 3.9 c0 2.14 -1.74 3.9 -3.88 3.9 l-9.86 -0.02 l0 4.68 l1.56 0 l0 -3.12 l1.54 0 l0 4.68 l-4.66 0 l0 -7.8 l11.42 0.02 c1.28 0 2.32 -1.06 2.32 -2.34 c0 -1.3 -1.04 -2.34 -2.32 -2.34 l-9.86 0 l0 1.56 l9.86 0 c0.4 0.02 0.74 0.36 0.74 0.78 s-0.32 0.76 -0.78 0.78 l-0.02 0 l-11.36 0 l0 -4.68 z M27.92 10.66 l0 -4.68 l4.68 0 l0 14.02 l-4.68 0 l0 -4.66 l-9.06 0 l0 3.1 l1.56 0 l0 -1.56 l1.56 0 l0 3.12 l-4.68 0 l0 -6.24 l12.2 0 l0 4.68 l1.54 0 l0 -10.9 l-1.54 0 l0 4.68 l-9.08 0 l0 -4.68 l-1.56 0 l0 4.68 l-1.56 0 l0 -6.24 l4.68 0 l0 4.68 l5.94 0 z M45.10000000000001 5.98 l5.66 0 l-5.34 7.68 l0 6.34 l-4.68 0 l0 -6.3 l-5.34 -7.72 l5.68 0 l1.12 1.64 l-0.92 1.38 l-1 -1.46 l-1.9 0 l3.92 5.66 l0.02 0.02 l0 5.22 l1.6 0 l0 -5.24 l3.86 -5.66 l-1.9 0 l-2.8 4.06 l-0.9 -1.28 z M64.5 13.780000000000001 c-7.94 0 -8.06 -0.02 -8.16 -0.02 l-0.04 0 c-2 -0.16 -3.54 -1.86 -3.54 -3.88 c0 -2.16 1.74 -3.9 3.9 -3.9 l8.4 0 c1.68 0 3.04 1.36 3.04 3.06 l0 1.62 l-11.38 0 l-0.02 0 l-0.02 0 c-0.46 -0.02 -0.76 -0.36 -0.76 -0.78 s0.32 -0.76 0.74 -0.78 l9.88 0 l0 -0.04 c0 -0.86 -0.66 -1.52 -1.52 -1.52 l-8.36 0 c-1.28 0 -2.34 1.04 -2.34 2.34 c0 1.2 0.9 2.16 2.04 2.32 c7.98 0 8.06 0.02 8.2 0.02 c2 0.16 3.54 1.88 3.54 3.88 c0 2.16 -1.74 3.9 -3.88 3.9 l-8.42 0 c-1.68 0 -3.04 -1.36 -3.04 -3.04 l0 -1.64 l11.46 0 c0.98 0.06 0.98 1.5 0 1.56 l-9.9 0 l0 0.04 c0 0.86 0.66 1.52 1.52 1.52 l8.38 0 c1.26 0 2.34 -1 2.34 -2.34 c0 -1.2 -0.9 -2.16 -2.06 -2.32 z M75.58000000000001 20 l-4.68 0 l0 -14.02 l4.68 0 l0 10.9 l-1.56 0 l0 -9.34 l-1.56 0 l0 10.9 l3.12 0 l0 1.56 z M93.68 5.98 l0 4.7 l-8.6 0 c-1.18 0.1 -2.08 1.12 -2.08 2.32 s0.9 2.18 2.08 2.32 l5.48 0 l0 1.56 l-5.48 0 c-2.02 -0.16 -3.62 -1.82 -3.62 -3.9 c0 -2 1.54 -3.7 3.54 -3.86 l7.12 0 l0 -1.58 l-7.04 0 l0 0.02 c-2.86 0.16 -5.14 2.52 -5.14 5.44 c0 2.9 2.28 5.28 5.14 5.44 l7.04 0 l0 -3.12 l1.56 0 l0 4.68 l-8.6 0 c-3.74 -0.16 -6.7 -3.24 -6.7 -7 c0 -3.78 2.96 -6.84 6.7 -7 z M108.22000000000001 13.780000000000001 c-7.94 0 -8.06 -0.02 -8.16 -0.02 l-0.04 0 c-2 -0.16 -3.54 -1.86 -3.54 -3.88 c0 -2.16 1.74 -3.9 3.9 -3.9 l8.4 0 c1.68 0 3.04 1.36 3.04 3.06 l0 1.62 l-11.38 0 l-0.02 0 l-0.02 0 c-0.46 -0.02 -0.76 -0.36 -0.76 -0.78 s0.32 -0.76 0.74 -0.78 l9.88 0 l0 -0.04 c0 -0.86 -0.66 -1.52 -1.52 -1.52 l-8.36 0 c-1.28 0 -2.34 1.04 -2.34 2.34 c0 1.2 0.9 2.16 2.04 2.32 c7.98 0 8.06 0.02 8.2 0.02 c2 0.16 3.54 1.88 3.54 3.88 c0 2.16 -1.74 3.9 -3.88 3.9 l-8.42 0 c-1.68 0 -3.04 -1.36 -3.04 -3.04 l0 -1.64 l11.46 0 c0.98 0.06 0.98 1.5 0 1.56 l-9.9 0 l0 0.04 c0 0.86 0.66 1.52 1.52 1.52 l8.38 0 c1.26 0 2.34 -1 2.34 -2.34 c0 -1.2 -0.9 -2.16 -2.06 -2.32 z"></path></g><g id="SvgjsG1016" featurekey="Nh6iBa-0" transform="matrix(1.0368030071258545,0,0,1.0368030071258545,133.81804476857386,63.05809000953393)" fill="#000000"><path d="M4.14 13.26 l0 6.74 l-3 0 l0 -12.24 l3 0 l3.82 6.76 l3.82 -6.76 l3 0 l0 12.24 l-3 0 l0 -6.74 l-2.32 3.98 l-3 0 z M40.201499999999996 17.52 l-4.5 0 l-0.88 2.48 l-3.26 0 l4.9 -12.24 l3 0 l4.9 12.24 l-3.28 0 z M36.6815 14.74 l2.54 0 l-1.26 -3.56 z M64.12299999999999 10.58 l0 2.92 l2.8 0 c0.92 0 1.46 -0.54 1.46 -1.46 s-0.54 -1.46 -1.46 -1.46 l-2.8 0 z M68.663 15.48 c0.56 0.76 1.12 1.52 1.7 2.26 c0.56 0.74 1.12 1.5 1.68 2.26 l-3.66 0 c-0.72 -0.96 -1.42 -1.92 -2.12 -2.88 c-0.7 -0.94 -1.42 -1.9 -2.14 -2.86 l0 5.74 l-3 0 l0 -12.24 l5.8 0 c2.28 0 4.22 1.74 4.22 4.04 c0 1.62 -1 3.04 -2.48 3.68 z M88.8445 7.76 l3 0 l0 5.74 l3.94 -5.74 l3.72 0 l-4.28 6.12 l4.44 6.12 l-3.68 0 l-4.14 -5.76 l0 5.76 l-3 0 l0 -12.24 z M116.04599999999999 7.76 l9.1 0 l0 2.78 l-6.1 0 l0 1.96 l4.9 0 l0 2.78 l-4.9 0 l0 1.94 l6.1 0 l0 2.78 l-9.1 0 l0 -12.24 z M141.6675 7.76 l10.2 0 l0 2.78 l-3.6 0 l0 9.46 l-3 0 l0 -9.46 l-3.6 0 l0 -2.78 z M168.889 7.76 l3 0 l0 12.24 l-3 0 l0 -12.24 z M197.4905 7.76 l3 0 l0 12.24 l-3 0 l-4.8 -7.16 l0 7.16 l-3 0 l0 -12.24 l3 0 l4.8 7.16 l0 -7.16 z M229.15200000000002 12.5 l0 6.8 c-1.42 0.54 -3.2 0.84 -4.72 0.84 c-3.9 0 -6.52 -2.34 -6.52 -6.2 c0 -4.22 3.14 -6.28 6.98 -6.28 c0.26 0 0.54 0 0.86 0.02 c0.3 0.02 0.62 0.06 0.96 0.08 c0.62 0.08 1.24 0.16 1.84 0.34 l0 3.06 c-0.22 -0.1 -0.46 -0.18 -0.74 -0.26 c-0.3 -0.06 -0.6 -0.12 -0.92 -0.18 c-0.64 -0.12 -1.32 -0.16 -1.98 -0.16 c-2.54 0 -4 0.78 -4 3.38 c0 2.54 1.34 3.3 3.62 3.3 c0.24 0 0.5 -0.02 0.78 -0.04 c0.26 -0.02 0.54 -0.04 0.84 -0.06 l0 -1.86 l-2.6 0 l0 -2.78 l5.6 0 z"></path></g></svg>